<svg id="layer_1" data-name="layer-_1" xmlns="http://www.w3.org/2000/svg" viewBox="0 0 100 100"><defs><style>.cls-1{fill:#0d182a;}.cls-2{fill:#fff;}</style></defs><title>logo</title><rect class="cls-1" width="100" height="100" rx="12" ry="12"/><path class="cls-2" d="M29.47,64.53V36.18h6.07L36.1,40h.15a22.17,22.17,0,0,1,3.85-3.16A8.79,8.79,0,0,1,45,35.47a7.59,7.59,0,0,1,7.75,5,26.3,26.3,0,0,1,4.18-3.52,8.56,8.56,0,0,1,4.88-1.44q4.56,0,6.66,3t2.1,8.38V64.53H63.14V47.77c0-2.19-.32-3.73-1-4.61a3.47,3.47,0,0,0-3-1.31,5.13,5.13,0,0,0-2.56.78A14.73,14.73,0,0,0,53.72,45V64.53H46.28V47.77c0-2.19-.32-3.73-1-4.61a3.48,3.48,0,0,0-3-1.31,5.31,5.31,0,0,0-2.56.78A12,12,0,0,0,36.91,45V64.53Z" transform="translate(0)"/></svg>